HIERARCHY
ROOT Hips
{
	OFFSET 0.00000 0.00000 0.00000
	CHANNELS 6 Xposition Yposition Zposition Zrotation Yrotation Xrotation 
	JOINT LHipJoint
	{
		OFFSET 0 0 0
		CHANNELS 3 Zrotation Yrotation Xrotation
		JOINT LeftUpLeg
		{
			OFFSET 1.88772 -1.62769 0.85636
			CHANNELS 3 Zrotation Yrotation Xrotation
			JOINT LeftLeg
			{
				OFFSET 2.39836 -6.58946 0.00000
				CHANNELS 3 Zrotation Yrotation Xrotation
				JOINT LeftFoot
				{
					OFFSET 2.78523 -7.65237 0.00000
					CHANNELS 3 Zrotation Yrotation Xrotation
					JOINT LeftToeBase
					{
						OFFSET 0.19551 -0.53715 1.90694
						CHANNELS 3 Zrotation Yrotation Xrotation
						End Site
						{
							OFFSET 0.00000 -0.00000 0.99735
						}
					}
				}
			}
		}
	}
	JOINT RHipJoint
	{
		OFFSET 0 0 0
		CHANNELS 3 Zrotation Yrotation Xrotation
		JOINT RightUpLeg
		{
			OFFSET -1.74282 -1.62769 0.85636
			CHANNELS 3 Zrotation Yrotation Xrotation
			JOINT RightLeg
			{
				OFFSET -2.36062 -6.48575 0.00000
				CHANNELS 3 Zrotation Yrotation Xrotation
				JOINT RightFoot
				{
					OFFSET -2.76258 -7.59014 0.00000
					CHANNELS 3 Zrotation Yrotation Xrotation
					JOINT RightToeBase
					{
						OFFSET -0.19308 -0.53048 2.03952
						CHANNELS 3 Zrotation Yrotation Xrotation
						End Site
						{
							OFFSET -0.00000 -0.00000 1.06031
						}
					}
				}
			}
		}
	}
	JOINT LowerBack
	{
		OFFSET 0 0 0
		CHANNELS 3 Zrotation Yrotation Xrotation
		JOINT Spine
		{
			OFFSET -0.08299 2.03160 -0.30721
			CHANNELS 3 Zrotation Yrotation Xrotation
			JOINT Spine1
			{
				OFFSET -0.01030 2.00603 0.13891
				CHANNELS 3 Zrotation Yrotation Xrotation
				JOINT Neck
				{
					OFFSET 0 0 0
					CHANNELS 3 Zrotation Yrotation Xrotation
					JOINT Neck1
					{
						OFFSET 0.04282 1.69578 0.19991
						CHANNELS 3 Zrotation Yrotation Xrotation
						JOINT Head
						{
							OFFSET -0.08665 1.66622 -0.03785
							CHANNELS 3 Zrotation Yrotation Xrotation
							End Site
							{
								OFFSET -0.03699 1.83329 -0.04094
							}
						}
					}
				}
				JOINT LeftShoulder
				{
					OFFSET 0 0 0
					CHANNELS 3 Zrotation Yrotation Xrotation
					JOINT LeftArm
					{
						OFFSET 3.04219 1.50803 -0.05347
						CHANNELS 3 Zrotation Yrotation Xrotation
						JOINT LeftForeArm
						{
							OFFSET 5.79199 -0.00000 0.00000
							CHANNELS 3 Zrotation Yrotation Xrotation
							JOINT LeftHand
							{
								OFFSET 3.49908 -0.00000 0.00000
								CHANNELS 3 Zrotation Yrotation Xrotation
								JOINT LeftFingerBase
								{
									OFFSET 0 0 0
									CHANNELS 3 Zrotation Yrotation Xrotation
									JOINT LeftHandIndex1
									{
										OFFSET 0.59386 -0.00000 0.00000
										CHANNELS 3 Zrotation Yrotation Xrotation
										End Site
										{
											OFFSET 0.47879 -0.00000 0.00000
										}
									}
								}
								JOINT LThumb
								{
									OFFSET 0 0 0
									CHANNELS 3 Zrotation Yrotation Xrotation
									End Site
									{
										OFFSET 0.48610 -0.00000 0.48610
									}
								}
							}
						}
					}
				}
				JOINT RightShoulder
				{
					OFFSET 0 0 0
					CHANNELS 3 Zrotation Yrotation Xrotation
					JOINT RightArm
					{
						OFFSET -3.30316 1.18853 0.11175
						CHANNELS 3 Zrotation Yrotation Xrotation
						JOINT RightForeArm
						{
							OFFSET -5.73799 -0.00000 0.00000
							CHANNELS 3 Zrotation Yrotation Xrotation
							JOINT RightHand
							{
								OFFSET -3.57916 -0.00000 -0.00000
								CHANNELS 3 Zrotation Yrotation Xrotation
								JOINT RightFingerBase
								{
									OFFSET 0 0 0
									CHANNELS 3 Zrotation Yrotation Xrotation
									JOINT RightHandIndex1
									{
										OFFSET -0.61558 -0.00000 0.00000
										CHANNELS 3 Zrotation Yrotation Xrotation
										End Site
										{
											OFFSET -0.49629 -0.00000 0.00000
										}
									}
								}
								JOINT RThumb
								{
									OFFSET 0 0 0
									CHANNELS 3 Zrotation Yrotation Xrotation
									End Site
									{
										OFFSET -0.50387 -0.00000 0.50387
									}
								}
							}
						}
					}
				}
			}
		}
	}
}
MOTION
Frames: 12
Frame Time: .0083333
11.2364 16.831 -24.7735 0 0 0 0 0 0 -21 0 0 0 0 0 0 0 0 0 0 0 0 0 0 21 0 0 0 0 0 0 0 0 0 0 0 0 0 0 0 0 0 0 0 0 0 0 -16 0 0 21 0 0 11 0 0 0 -8 0 0 0 0 0 0 0 0 0 0 0 0 0 0 0 0 0 0 0 0 8 0 0 0 0 0 0 0 0 0 0 0 0 0 0 0 0 0
11.2364 16.8310 -24.7735 1.2818 -7.7983 7.8853 0.0000 0.0000 0.0000 -17.0090 -13.5156 -37.1711 3.8271 11.9267 35.4733 0.0783 5.4899 -9.8540 0.1564 -2.5478 -7.0222 0.0000 0.0000 0.0000 20.5882 -6.1479 9.7569 -0.9767 -6.2913 17.6319 0.1928 -10.9851 -12.3036 -2.3769 9.6106 -27.7248 -5.7533 1.3775 4.0008 -1.9703 1.4221 -1.9573 1.0707 0.8385 -4.3707 6.2235 7.7593 -5.1290 -8.9118 10.6680 7.2787 -3.1353 5.0852 3.8240 -0.0000 -0.0000 0.0000 -79.1563 13.9276 34.9238 20.2334 -30.9225 -5.6508 -0.0000 0.0000 -18.0655 7.2708 -19.8943 -2.4860 -7.1250 0.0000 -0.0000 -13.5553 10.3651 11.2223 -0.0000 -0.0000 0.0000 80.4656 -14.9868 41.9836 -27.4908 38.6432 -9.8041 0.0000 -0.0000 -11.2837 -24.6473 -28.4054 12.3129 7.1250 -0.0000 -0.0000 7.0270 -60.5972 -2.6797
11.2664 16.8510 -24.6278 1.3423 -7.5975 7.7213 0.0000 0.0000 0.0000 -17.4535 -13.4164 -36.5129 3.8521 11.9610 35.5942 0.1070 5.1503 -10.1071 0.1353 -2.3706 -6.5310 0.0000 0.0000 0.0000 20.2711 -6.0135 8.5249 -1.3181 -7.2715 20.5221 0.2603 -11.2034 -11.2236 -1.9963 8.8583 -25.3530 -5.6528 1.3623 4.1159 -2.0543 1.3975 -1.9125 0.9280 0.8217 -4.3826 6.3607 7.6444 -5.2100 -8.9790 10.5204 7.4979 -3.1809 5.0073 3.9030 0.0000 -0.0000 0.0000 -78.9851 13.6320 35.1344 19.7556 -30.3468 -5.4073 -0.0000 0.0000 -17.6618 7.4737 -20.0424 -2.5743 -7.1250 0.0000 -0.0000 -13.4246 10.2045 11.1527 0.0000 -0.0000 0.0000 80.5890 -15.0542 41.9165 -27.1812 38.3514 -9.6113 0.0000 -0.0000 -11.8180 -25.2451 -27.9699 12.4702 7.1250 -0.0000 -0.0000 6.1205 -60.2936 -2.2882
11.2966 16.8614 -24.4879 1.3406 -7.2323 7.5095 0.0000 0.0000 0.0000 -17.8042 -13.4385 -35.8023 3.8664 11.9804 35.6627 0.1448 4.6612 -10.4034 0.1070 -2.1096 -5.8088 0.0000 0.0000 0.0000 20.0929 -5.9552 7.1830 -1.7497 -8.3240 23.7026 0.3198 -11.5034 -10.3657 -1.6198 8.0247 -22.7891 -5.4644 1.3400 4.3440 -2.1184 1.3595 -1.9066 0.7545 0.7986 -4.4967 6.5962 7.4264 -5.5644 -9.1075 10.2451 8.0804 -3.2549 4.8530 4.1352 -0.0000 -0.0000 0.0000 -78.7740 13.4702 35.3208 19.4724 -30.0014 -5.2650 -0.0000 0.0000 -17.3116 6.5663 -19.0168 -2.1480 -7.1250 0.0000 -0.0000 -14.0205 11.2733 11.3634 -0.0000 -0.0000 0.0000 80.8932 -15.3311 41.4204 -26.9044 38.0879 -9.4401 0.0000 -0.0000 -12.0918 -25.3669 -27.6795 12.4208 7.1250 -0.0000 -0.0000 5.8401 -60.0216 -2.1450
11.3232 16.8685 -24.3549 1.4507 -7.0018 7.4337 0.0000 0.0000 0.0000 -18.2049 -13.4889 -35.1960 3.8607 11.9727 35.6355 0.1798 4.3288 -10.7872 0.0857 -1.8881 -5.1965 0.0000 0.0000 0.0000 19.8085 -5.6937 5.7517 -2.2096 -9.2896 26.7056 0.4109 -12.0413 -8.9652 -1.3733 7.4161 -20.9541 -5.5542 1.3247 4.4242 -2.1269 1.3271 -1.9078 0.7964 0.7859 -4.5441 6.9218 7.2312 -6.6162 -9.3280 10.0177 9.3394 -3.3380 4.6894 4.7036 -0.0000 0.0000 0.0000 -78.7073 13.2278 35.2003 19.1504 -29.6052 -5.1050 -0.0000 0.0000 -16.6470 5.0164 -17.9807 -1.5521 -7.1250 0.0000 -0.0000 -15.0462 12.3808 11.8977 -0.0000 0.0000 0.0000 80.9735 -15.6306 41.2001 -26.7325 37.9229 -9.3342 0.0000 -0.0000 -12.6809 -25.8549 -27.4616 12.5972 7.1250 -0.0000 -0.0000 5.1799 -59.9129 -1.8883
11.3499 16.8790 -24.2281 1.8423 -6.7387 7.5334 0.0000 0.0000 0.0000 -18.9380 -13.4678 -34.7522 3.8264 11.9257 35.4696 0.2126 3.8441 -10.9944 0.0767 -1.7871 -4.9175 0.0000 0.0000 0.0000 19.2173 -5.3781 3.9878 -2.7303 -10.2450 29.7739 0.4780 -12.4714 -7.6607 -1.1359 6.7688 -19.0322 -5.9239 1.2282 4.4667 -2.1649 1.1619 -2.0597 0.9731 0.7207 -4.7269 7.2457 7.1087 -6.9129 -9.6605 9.8941 10.0092 -3.4858 4.6022 4.9815 0.0000 -0.0000 0.0000 -78.7457 13.1965 35.0992 18.7358 -29.0891 -4.9018 -0.0000 0.0000 -15.7107 5.1148 -18.0069 -1.5849 -7.1250 0.0000 -0.0000 -14.9820 12.3496 11.8532 0.0000 -0.0000 0.0000 80.7373 -15.9320 41.3221 -26.4874 37.6859 -9.1840 0.0000 -0.0000 -12.6471 -25.4894 -27.5286 12.4265 7.1250 -0.0000 -0.0000 5.6287 -59.8942 -2.0500
11.3753 16.8940 -24.1035 2.2465 -6.4836 7.6308 0.0000 0.0000 0.0000 -19.7173 -13.3664 -34.2441 3.7590 11.8326 35.1424 0.2350 3.4348 -11.0848 0.0855 -1.8855 -5.1894 0.0000 0.0000 0.0000 18.6157 -5.0555 2.1793 -3.3139 -11.1867 32.9120 0.5036 -12.6593 -7.1023 -0.7944 5.6890 -15.8848 -6.2234 1.1532 4.5599 -2.2745 1.0194 -2.2479 1.0330 0.6663 -4.9742 7.0376 7.1317 -6.2119 -9.3668 9.9188 9.6259 -3.3878 4.6498 4.7222 0.0000 0.0000 0.0000 -78.6050 13.3835 35.5885 18.4008 -28.6673 -4.7399 -0.0000 0.0000 -14.5757 7.3725 -19.0728 -2.4210 -7.1250 0.0000 -0.0000 -13.5034 11.1598 10.9510 0.0000 0.0000 0.0000 80.6452 -16.1737 41.3000 -26.1226 37.3295 -8.9619 0.0000 -0.0000 -11.9772 -24.8372 -27.7528 12.1630 7.1250 -0.0000 -0.0000 6.4791 -59.9692 -2.3727
11.3944 16.9130 -23.9714 2.5731 -6.4876 7.6085 0.0000 0.0000 0.0000 -20.2787 -13.3732 -33.4381 3.6774 11.7183 34.7427 0.2655 3.2814 -11.5096 0.0349 -1.2050 -3.3132 0.0000 0.0000 0.0000 18.0834 -4.5607 0.5835 -3.9397 -12.0797 36.0144 0.5253 -12.8005 -6.3063 -0.5903 4.9192 -13.6781 -6.5610 1.1821 4.5385 -2.3858 1.0308 -2.2671 1.1037 0.6814 -4.9895 6.6772 7.3039 -5.5958 -8.8211 10.1140 9.0736 -3.1765 4.7874 4.4200 -0.0000 0.0000 0.0000 -78.3500 13.2477 35.4442 18.6242 -28.9490 -4.8476 -0.0000 0.0000 -15.6117 5.2027 -17.5337 -1.5713 -7.1250 0.0000 -0.0000 -14.9439 12.8025 11.6741 -0.0000 0.0000 0.0000 80.7425 -16.1555 41.1440 -25.7487 36.9595 -8.7361 0.0000 -0.0000 -11.4521 -24.5374 -27.9603 12.0813 7.1250 -0.0000 -0.0000 6.9233 -60.1112 -2.5598
11.4101 16.9232 -23.8346 2.9242 -6.4971 7.5795 0.0000 0.0000 0.0000 -20.8221 -13.2645 -32.6550 3.6027 11.6121 34.3731 0.3070 2.8771 -11.9280 0.0018 0.2707 0.7438 0.0000 0.0000 0.0000 17.5585 -4.0624 -0.9427 -4.5872 -12.9033 39.0075 0.5457 -12.9647 -5.3290 -0.4478 4.2931 -11.9029 -6.9816 1.1805 4.4726 -2.4649 1.0019 -2.2850 1.2585 0.6793 -4.9780 6.8905 7.2719 -5.8492 -8.9832 10.0813 9.4133 -3.2488 4.7580 4.5826 0.0000 -0.0000 0.0000 -78.1422 13.1186 35.4119 18.6204 -28.9443 -4.8458 -0.0000 0.0000 -16.0083 4.3488 -16.4513 -1.2337 -7.1250 0.0000 -0.0000 -15.5475 13.8961 11.8103 0.0000 -0.0000 0.0000 80.7373 -16.1443 41.3418 -25.4612 36.6717 -8.5639 0.0000 -0.0000 -11.5833 -24.4963 -27.8358 12.0112 7.1250 -0.0000 -0.0000 6.9073 -59.9726 -2.5310
11.4267 16.9310 -23.7069 2.9982 -6.4064 7.6315 0.0000 0.0000 0.0000 -21.1393 -12.9650 -32.1301 3.5460 11.5305 34.0906 0.3382 2.3746 -12.1163 0.0157 0.8079 2.2203 0.0000 0.0000 0.0000 17.3680 -3.6345 -2.5704 -5.2478 -13.6575 41.8826 0.5635 -13.1653 -4.5077 -0.3774 3.9453 -10.9230 -7.0639 1.1785 4.4599 -2.4830 0.9912 -2.3342 1.2855 0.6785 -5.0236 7.1991 7.0342 -6.4863 -9.3255 9.7784 9.9904 -3.3992 4.5754 4.8738 0.0000 -0.0000 0.0000 -78.0803 12.9103 34.8924 18.4493 -28.7286 -4.7632 -0.0000 0.0000 -15.5286 3.5475 -16.0397 -0.9814 -7.1250 0.0000 -0.0000 -16.0922 14.3318 12.1039 0.0000 -0.0000 0.0000 80.7678 -16.2333 41.4806 -25.2521 36.4606 -8.4393 0.0000 -0.0000 -11.7321 -24.5975 -27.8094 12.0555 7.1250 -0.0000 -0.0000 6.7794 -59.9699 -2.4834
11.4447 16.9501 -23.5840 2.8865 -6.3698 7.5616 0.0000 0.0000 0.0000 -21.3426 -12.5293 -31.5501 3.5051 11.4710 33.8853 0.3607 2.0776 -12.2965 0.0024 0.3176 0.8725 0.0000 0.0000 0.0000 17.3773 -3.1437 -4.0429 -5.9136 -14.3441 44.6341 0.5634 -13.2048 -3.7278 -0.3483 3.7921 -10.4925 -7.0239 1.2106 4.4988 -2.3864 1.0426 -2.2525 1.3601 0.7012 -4.9643 7.1513 6.9209 -6.6285 -9.4497 9.6319 9.9231 -3.4381 4.4924 4.8686 0.0000 -0.0000 0.0000 -78.2101 12.6061 34.1932 18.2973 -28.5361 -4.6904 -0.0000 0.0000 -14.6502 3.1892 -16.2802 -0.8949 -7.1250 0.0000 -0.0000 -16.3109 14.1172 12.3609 0.0000 -0.0000 0.0000 80.6541 -16.0972 41.4326 -24.9211 36.1232 -8.2433 0.0000 -0.0000 -11.1538 -24.1115 -27.8696 11.8168 7.1250 -0.0000 -0.0000 7.3599 -59.9148 -2.6877
11.4594 16.9685 -23.4591 2.9340 -6.3410 7.3693 0.0000 0.0000 0.0000 -21.7733 -11.8728 -30.9453 3.4765 11.4291 33.7411 0.3813 1.7780 -12.4499 0.0105 -0.6604 -1.8148 0.0000 0.0000 0.0000 17.2291 -2.6607 -5.3399 -6.5849 -14.9721 47.2862 0.5311 -12.8591 -3.2927 -0.2782 3.3923 -9.3728 -7.1572 1.2133 4.6445 -2.3171 1.0309 -2.1794 1.5056 0.6997 -4.9742 7.1505 6.9051 -6.5700 -9.6392 9.6368 9.9207 -3.4983 4.4861 4.8679 0.0000 0.0000 0.0000 -78.1118 12.5627 34.1868 18.3032 -28.5437 -4.6932 -0.0000 0.0000 -14.6578 3.6798 -17.1978 -1.0894 -7.1250 0.0000 -0.0000 -15.9421 13.2112 12.3760 0.0000 0.0000 0.0000 80.4126 -15.9706 41.5507 -24.5607 35.7516 -8.0318 0.0000 -0.0000 -10.4191 -23.0851 -27.8977 11.2785 7.1250 -0.0000 -0.0000 8.5281 -59.6981 -3.0737
